# xmcd
#
# Track frame offsets:
# 150
# 21425
# 40067
# 51407
# 68909
# 90471
# 114089
# 131716
# 155571
# 175578
# 201630
# 218157
# 233335
# 249842
# 283294
#
# Disc length: 4079 seconds
#
#
# Revision: 0
# Processed by: cddbd v1.5.2PL0 Copyright (c) Steve Scherf et al.
# Submitted via: FreeRIP 2.944 
#
DISCID=d10fed0f
DTITLE=Lion Frank - Franco Brusco - Transit Emotions 
DYEAR=2010
DGENRE=Ambient
TTITLE0=Back to life (Allevi)
TTITLE1=All the time in the world (Barry)
TTITLE2=Chiaro di luna (Beethoven)
TTITLE3=Swing meadle (Tenderly-The Lady is a tramp-More)
TTITLE4=Unchained melody (North)
TTITLE5=Venus (Van Leeuwen)
TTITLE6=Raffaella (Pisano)
TTITLE7=Samba meadle (Love's in the air-Mas que nada-Never endind story)
TTITLE8=Wight is whight (Vincent)
TTITLE9=Careless whisper (Michael)
TTITLE10=Misty (Garner)
TTITLE11=Un senso (Rossi)
TTITLE12=Heal the world (Jackson)
TTITLE13=Transit emotions (Brusco)
TTITLE14=Via Beato Angelico (Tommaso)
EXTD=
EXTT0=
EXTT1=
EXTT2=
EXTT3=
EXTT4=
EXTT5=
EXTT6=
EXTT7=
EXTT8=
EXTT9=
EXTT10=
EXTT11=
EXTT12=
EXTT13=
EXTT14=
PLAYORDER=
